<svg width="96" height="96" xmlns="http://www.w3.org/2000/svg" xmlns:xlink="http://www.w3.org/1999/xlink" xml:space="preserve" overflow="hidden"><defs><clipPath id="clip0"><rect x="592" y="312" width="96" height="96"/></clipPath></defs><g clip-path="url(#clip0)" transform="translate(-592 -312)"><path d="M658 360C658 361.1 657.1 362 656 362L624 362C622.9 362 622 361.1 622 360L622 340C622 337.8 623.8 336 626 336L634 336C634 334.9 634.9 334 636 334L644 334C645.1 334 646 334.9 646 336L654 336C656.2 336 658 337.8 658 340L658 360ZM655 384C653.3 384 652 382.7 652 381 652 379.3 653.3 378 655 378 656.7 378 658 379.3 658 381 658 382.7 656.7 384 655 384ZM625 384C623.3 384 622 382.7 622 381 622 379.3 623.3 378 625 378 626.7 378 628 379.3 628 381 628 382.7 626.7 384 625 384ZM656 330 642 330 642 324 652 324 652 320 628 320 628 324 638 324 638 330 624 330C619.6 330 616 333.6 616 338L616 384C616 387.3 618.7 390 622 390L622.9 390 618.4 400 622.8 400 627.3 390 652.7 390 657.2 400 661.6 400 657.1 390 658 390C661.3 390 664 387.3 664 384L664 338C664 333.6 660.4 330 656 330Z"/></g></svg>